<svg xmlns="http://www.w3.org/2000/svg" xmlns:xlink="http://www.w3.org/1999/xlink" width="500" zoomAndPan="magnify" viewBox="0 0 375 374.999991" height="500" preserveAspectRatio="xMidYMid meet" version="1.0"><defs><g/><clipPath id="71ad24c53c"><path d="M 10 141 L 370.195312 141 L 370.195312 214.050781 L 10 214.050781 Z M 10 141 " clip-rule="nonzero"/></clipPath><clipPath id="e6e5c829a9"><path d="M 21 241 L 136.542969 241 L 136.542969 245 L 21 245 Z M 21 241 " clip-rule="nonzero"/></clipPath><clipPath id="11a4983172"><path d="M 4.238281 239.011719 L 136.542969 239.011719 L 136.542969 247.347656 L 4.238281 247.347656 Z M 4.238281 239.011719 " clip-rule="nonzero"/></clipPath><clipPath id="4944ce1af2"><path d="M 242.589844 242 L 358 242 L 358 246 L 242.589844 246 Z M 242.589844 242 " clip-rule="nonzero"/></clipPath><clipPath id="2acf253014"><path d="M 242.589844 239.355469 L 374.898438 239.355469 L 374.898438 247.691406 L 242.589844 247.691406 Z M 242.589844 239.355469 " clip-rule="nonzero"/></clipPath></defs><g clip-path="url(#71ad24c53c)"><path fill="#ffffff" d="M 109.46875 182.171875 C 167.597656 196.171875 288.386719 168.480469 311.914062 186.828125 C 266.898438 173.0625 153.515625 203.710938 109.46875 182.171875 Z M 13.203125 214.285156 C 14.355469 193.738281 29.039062 182.902344 51.261719 183.296875 C 44.796875 178.792969 26.734375 184.5 28.566406 174.265625 C 63.535156 173.796875 98.371094 174.1875 132.527344 178.164062 C 114.597656 171.621094 99.914062 165.238281 95.882812 159.976562 C 146.816406 147.175781 190.867188 136.132812 231.433594 167.855469 C 227.71875 169.058594 223.949219 170.210938 220.128906 171.28125 C 216.28125 168.117188 213.191406 164.738281 208.191406 164.738281 C 204.476562 164.738281 201.519531 165.941406 201.519531 167.511719 C 201.519531 169.003906 204.476562 170.210938 208.191406 170.210938 C 209.816406 170.210938 211.28125 169.949219 212.433594 169.605469 L 215.335938 172.644531 C 200.105469 176.753906 184.085938 179.917969 167.703125 182.695312 C 231.566406 178.792969 261.007812 163.429688 331.203125 179.265625 C 323.929688 179.527344 317.59375 180.128906 310.582031 179.734375 C 331.203125 190.910156 350.179688 181.621094 370.125 191.460938 C 341.410156 174.214844 300.792969 164.453125 243.003906 167.671875 C 210.652344 143.75 189.035156 136.8125 144.25 143.75 C 116.167969 148.066406 88.871094 156.679688 60.707031 161.808594 C 42.648438 165.054688 25.402344 166.988281 15.507812 163.5625 C 17.601562 168.875 19.355469 174.476562 19.484375 182.144531 C 7.945312 185.859375 9.828125 199.550781 13.203125 214.285156 Z M 113.707031 162.359375 C 165.976562 148.144531 190.160156 151.835938 207.617188 159.792969 C 187.464844 154.664062 166.316406 150.421875 126.246094 163.769531 C 137.96875 173.402344 158.910156 173.535156 178.382812 175.15625 C 158.726562 175.628906 140.324219 179.265625 113.707031 162.359375 Z M 113.707031 162.359375 " fill-opacity="1" fill-rule="evenodd"/></g><g fill="#ffffff" fill-opacity="1"><g transform="translate(15.238846, 233.109258)"><g><path d="M 21.765625 0.890625 C 33.015625 0.890625 42.34375 -5.734375 46.296875 -16.75 L 33.96875 -16.75 C 31.640625 -12.734375 27.515625 -10.28125 23.09375 -10.28125 C 17.171875 -10.28125 14.109375 -14.53125 15.375 -20.875 C 16.625 -27.21875 21.53125 -31.578125 27.515625 -31.578125 C 31.875 -31.578125 34.984375 -29.1875 35.53125 -25.359375 L 47.609375 -25.359375 C 47.484375 -35.765625 39.59375 -42.765625 28.171875 -42.765625 C 15.734375 -42.765625 5.796875 -34.515625 3.234375 -21.828125 C 0.53125 -8.609375 8.25 0.890625 21.765625 0.890625 Z M 21.765625 0.890625 "/></g></g></g><g fill="#ffffff" fill-opacity="1"><g transform="translate(63.204923, 233.109258)"><g><path d="M -2.875 0 L 10.765625 0 L 14.296875 -5.921875 L 28.65625 -5.921875 L 29.671875 0 L 41.625 0 L 33.796875 -41.875 L 21.765625 -41.875 Z M 18.484375 -14.78125 L 25.59375 -27.75 L 27.640625 -14.78125 Z M 18.484375 -14.78125 "/></g></g></g><g fill="#ffffff" fill-opacity="1"><g transform="translate(108.300205, 233.109258)"><g><path d="M 1.3125 0 L 13.34375 0 L 15.796875 -11.90625 L 20.34375 -11.90625 L 23.921875 0 L 37.5625 0 L 32.71875 -13.875 C 37.5625 -16.203125 40.859375 -20.34375 41.984375 -25.953125 C 43.96875 -35.640625 38.640625 -41.875 28.46875 -41.875 L 9.6875 -41.875 Z M 17.46875 -21.53125 L 19.5625 -32 L 25.125 -32 C 29.015625 -32 30.6875 -30.078125 29.96875 -26.796875 C 29.3125 -23.453125 26.796875 -21.53125 22.96875 -21.53125 Z M 17.46875 -21.53125 "/></g></g></g><g fill="#ffffff" fill-opacity="1"><g transform="translate(151.36202, 233.109258)"><g><path d="M 16.8125 0.890625 C 27.21875 0.890625 33.609375 -3.703125 35.109375 -11.125 C 36.546875 -18.359375 32.125 -23.453125 23.03125 -25.296875 C 18.125 -26.3125 16.265625 -27.75 16.859375 -30.4375 C 17.21875 -32.296875 19.078125 -33.5625 21.828125 -33.5625 C 25.484375 -33.5625 26.859375 -31.34375 26.3125 -28.765625 L 37.796875 -28.765625 C 39 -37.265625 33.203125 -42.765625 22.84375 -42.765625 C 12.625 -42.765625 6.640625 -38.28125 5.203125 -31.046875 C 3.65625 -23.265625 8.609375 -18.296875 17.109375 -16.859375 C 21.828125 -16.15625 23.625 -14.421875 23.09375 -11.78125 C 22.671875 -9.6875 20.6875 -8.5 17.765625 -8.5 C 14.296875 -8.5 12.734375 -10.234375 13.21875 -13.390625 L 1.796875 -13.390625 C -0.0625 -4.484375 5.6875 0.890625 16.8125 0.890625 Z M 16.8125 0.890625 "/></g></g></g><g fill="#ffffff" fill-opacity="1"><g transform="translate(189.519561, 233.109258)"><g><path d="M 11.125 0 L 23.390625 0 L 29.484375 -30.6875 L 42.109375 -30.6875 L 44.375 -41.875 L 6.9375 -41.875 L 4.671875 -30.6875 L 17.21875 -30.6875 Z M 11.125 0 "/></g></g></g><g fill="#ffffff" fill-opacity="1"><g transform="translate(230.368478, 233.109258)"><g><path d="M 22.546875 0.890625 C 35.40625 0.890625 46.0625 -7.71875 48.515625 -20.03125 C 51.140625 -33.25 43.0625 -42.765625 29.125 -42.765625 C 16.328125 -42.765625 5.6875 -34.15625 3.234375 -21.828125 C 0.59375 -8.609375 8.671875 0.890625 22.546875 0.890625 Z M 15.375 -20.875 C 16.625 -27.21875 21.828125 -31.578125 28.046875 -31.578125 C 34.21875 -31.578125 37.625 -27.28125 36.359375 -21 C 35.109375 -14.65625 29.84375 -10.28125 23.6875 -10.28125 C 17.53125 -10.28125 14.109375 -14.59375 15.375 -20.875 Z M 15.375 -20.875 "/></g></g></g><g fill="#ffffff" fill-opacity="1"><g transform="translate(280.068978, 233.109258)"><g><path d="M 1.3125 0 L 13.34375 0 L 15.796875 -11.90625 L 20.34375 -11.90625 L 23.921875 0 L 37.5625 0 L 32.71875 -13.875 C 37.5625 -16.203125 40.859375 -20.34375 41.984375 -25.953125 C 43.96875 -35.640625 38.640625 -41.875 28.46875 -41.875 L 9.6875 -41.875 Z M 17.46875 -21.53125 L 19.5625 -32 L 25.125 -32 C 29.015625 -32 30.6875 -30.078125 29.96875 -26.796875 C 29.3125 -23.453125 26.796875 -21.53125 22.96875 -21.53125 Z M 17.46875 -21.53125 "/></g></g></g><g fill="#ffffff" fill-opacity="1"><g transform="translate(323.130809, 233.109258)"><g><path d="M 1.3125 0 L 30.75 0 L 32.71875 -9.875 L 15.4375 -9.875 L 16.75 -16.328125 L 31.703125 -16.328125 L 33.671875 -26.015625 L 18.65625 -26.015625 L 19.859375 -32.125 L 36.546875 -32.125 L 38.453125 -41.875 L 9.6875 -41.875 Z M 1.3125 0 "/></g></g></g><g clip-path="url(#e6e5c829a9)"><path fill="#ffffff" d="M 21.792969 244.003906 L 277.054688 244.003906 L 277.054688 241.140625 Z M 21.792969 244.003906 " fill-opacity="1" fill-rule="nonzero"/></g><g clip-path="url(#11a4983172)"><path fill="#ffffff" d="M 296.523438 256.65625 L 278.820312 256.65625 L 276.089844 251.179688 L 4.238281 251.179688 L 274.347656 251.179688 L 277.390625 248.898438 L 280.109375 253.605469 L 291.710938 253.605469 L 282.03125 236.085938 L 40.113281 236.085938 L 283.332031 233.816406 L 296.523438 256.65625 " fill-opacity="1" fill-rule="nonzero"/></g><g clip-path="url(#4944ce1af2)"><path fill="#ffffff" d="M 357.34375 242.699219 L 102.078125 242.699219 L 102.078125 245.5625 Z M 357.34375 242.699219 " fill-opacity="1" fill-rule="nonzero"/></g><g clip-path="url(#2acf253014)"><path fill="#ffffff" d="M 82.609375 230.046875 L 100.316406 230.046875 L 103.042969 235.523438 L 374.898438 235.523438 L 104.785156 235.523438 L 101.742188 237.804688 L 99.023438 233.097656 L 87.425781 233.097656 L 97.101562 250.617188 L 339.019531 250.617188 L 95.800781 252.886719 L 82.609375 230.046875 " fill-opacity="1" fill-rule="nonzero"/></g><g fill="#ffffff" fill-opacity="1"><g transform="translate(146.302457, 247.257824)"><g><path d="M 1.328125 0 L 7 0 L 7 -1.0625 L 2.46875 -1.0625 L 2.46875 -4.109375 L 6.53125 -4.109375 L 6.53125 -5.15625 L 2.46875 -5.15625 L 2.46875 -8.03125 L 6.84375 -8.03125 L 6.84375 -9.09375 L 1.328125 -9.09375 Z M 1.328125 0 "/></g></g></g><g fill="#ffffff" fill-opacity="1"><g transform="translate(156.73616, 247.257824)"><g><path d="M 4.359375 0.171875 C 6.34375 0.171875 7.625 -0.8125 7.625 -2.390625 C 7.625 -3.734375 6.734375 -4.53125 4.40625 -5.109375 C 2.640625 -5.53125 2.046875 -6 2.046875 -6.765625 C 2.046875 -7.625 2.828125 -8.171875 4.140625 -8.171875 C 5.46875 -8.171875 6.3125 -7.5 6.328125 -6.40625 L 7.46875 -6.40625 C 7.453125 -8.171875 6.171875 -9.265625 4.140625 -9.265625 C 2.140625 -9.265625 0.890625 -8.296875 0.890625 -6.765625 C 0.890625 -5.359375 1.890625 -4.578125 4.125 -4.046875 C 5.765625 -3.65625 6.453125 -3.203125 6.453125 -2.359375 C 6.453125 -1.453125 5.640625 -0.921875 4.359375 -0.921875 C 2.9375 -0.921875 1.953125 -1.625 1.921875 -2.796875 L 0.78125 -2.796875 C 0.796875 -1.015625 2.1875 0.171875 4.359375 0.171875 Z M 4.359375 0.171875 "/></g></g></g><g fill="#ffffff" fill-opacity="1"><g transform="translate(167.741523, 247.257824)"><g><path d="M 3.515625 0 L 4.671875 0 L 4.671875 -8.015625 L 7.734375 -8.015625 L 7.734375 -9.09375 L 0.4375 -9.09375 L 0.4375 -8.015625 L 3.515625 -8.015625 Z M 3.515625 0 "/></g></g></g><g fill="#ffffff" fill-opacity="1"><g transform="translate(178.526012, 247.257824)"><g><path d="M 1.65625 0.109375 C 2.203125 0.109375 2.546875 -0.265625 2.546875 -0.75 C 2.546875 -1.25 2.203125 -1.59375 1.65625 -1.59375 C 1.140625 -1.59375 0.796875 -1.25 0.796875 -0.75 C 0.796875 -0.265625 1.140625 0.109375 1.65625 0.109375 Z M 1.65625 0.109375 "/></g></g></g><g fill="#ffffff" fill-opacity="1"><g transform="translate(184.464409, 247.257824)"><g/></g></g><g fill="#ffffff" fill-opacity="1"><g transform="translate(190.285881, 247.257824)"><g><path d="M 0.9375 0 L 7.265625 0 L 7.265625 -1.0625 L 2.8125 -1.0625 L 5.4375 -3.453125 C 6.5625 -4.5 7.078125 -5.515625 7.078125 -6.53125 C 7.078125 -8.140625 5.8125 -9.265625 4.0625 -9.265625 C 2.28125 -9.265625 1.09375 -8.09375 1.046875 -6.265625 L 2.109375 -6.265625 C 2.140625 -7.53125 2.921875 -8.265625 4.078125 -8.265625 C 5.203125 -8.265625 5.984375 -7.578125 5.984375 -6.53125 C 5.984375 -5.78125 5.578125 -5.125 4.703125 -4.3125 L 0.9375 -0.859375 Z M 0.9375 0 "/></g></g></g><g fill="#ffffff" fill-opacity="1"><g transform="translate(201.213287, 247.257824)"><g><path d="M 4.546875 0.171875 C 6.828125 0.171875 8.21875 -1.640625 8.21875 -4.546875 C 8.21875 -7.46875 6.828125 -9.265625 4.546875 -9.265625 C 2.28125 -9.265625 0.875 -7.46875 0.875 -4.546875 C 0.875 -1.640625 2.28125 0.171875 4.546875 0.171875 Z M 2 -4.546875 C 2 -6.78125 2.984375 -8.15625 4.546875 -8.15625 C 6.125 -8.15625 7.078125 -6.78125 7.078125 -4.546875 C 7.078125 -2.3125 6.125 -0.9375 4.546875 -0.9375 C 2.984375 -0.9375 2 -2.3125 2 -4.546875 Z M 2 -4.546875 "/></g></g></g><g fill="#ffffff" fill-opacity="1"><g transform="translate(212.894245, 247.257824)"><g><path d="M 0.9375 0 L 7.265625 0 L 7.265625 -1.0625 L 2.8125 -1.0625 L 5.4375 -3.453125 C 6.5625 -4.5 7.078125 -5.515625 7.078125 -6.53125 C 7.078125 -8.140625 5.8125 -9.265625 4.0625 -9.265625 C 2.28125 -9.265625 1.09375 -8.09375 1.046875 -6.265625 L 2.109375 -6.265625 C 2.140625 -7.53125 2.921875 -8.265625 4.078125 -8.265625 C 5.203125 -8.265625 5.984375 -7.578125 5.984375 -6.53125 C 5.984375 -5.78125 5.578125 -5.125 4.703125 -4.3125 L 0.9375 -0.859375 Z M 0.9375 0 "/></g></g></g><g fill="#ffffff" fill-opacity="1"><g transform="translate(223.821656, 247.257824)"><g><path d="M 0.46875 -1.921875 L 5.109375 -1.921875 L 5.109375 0 L 6.25 0 L 6.25 -1.921875 L 7.46875 -1.921875 L 7.46875 -3.015625 L 6.25 -3.015625 L 6.25 -5.875 L 5.203125 -5.875 L 5.125 -2.984375 L 1.859375 -2.984375 L 5.0625 -9.09375 L 3.75 -9.09375 L 0.46875 -2.796875 Z M 0.46875 -1.921875 "/></g></g></g></svg>